<?xml version="1.0" encoding="utf-8"?>
<!-- Generator: Adobe Illustrator 16.0.0, SVG Export Plug-In . SVG Version: 6.00 Build 0)  -->
<!DOCTYPE svg PUBLIC "-//W3C//DTD SVG 1.1//EN" "http://www.w3.org/Graphics/SVG/1.1/DTD/svg11.dtd">
<svg version="1.1" id="Layer_1" xmlns="http://www.w3.org/2000/svg" xmlns:xlink="http://www.w3.org/1999/xlink" x="0px" y="0px"
	 width="296.531px" height="296.531px" viewBox="0 0 296.531 296.531" enable-background="new 0 0 296.531 296.531"
	 xml:space="preserve">
<g>
	<g>
		<path fill="#FFFFFF" d="M131.953,2.32c27.92-3.02,56.69,2.02,81.79,14.66c28.62,14.24,52.33,38.07,66.44,66.76
			c12.95,26.06,17.74,56.02,13.89,84.84c-3.89,29.96-17.41,58.52-37.97,80.63c-20.52,22.24-48.02,37.96-77.66,44.14
			c-29.9,6.33-61.77,3.18-89.75-9.15c-28.39-12.38-52.62-33.97-68.23-60.7c-13.45-22.87-20.48-49.43-20.14-75.95
			c0.16-33.69,12.47-67.11,34.1-92.92C58.543,25.45,94.273,6.17,131.953,2.32z M128.853,6.2c-31.12,4.04-60.67,18.79-82.7,41.12
			c-23.4,23.41-38.25,55.12-41.22,88.08c-2.89,29.86,3.84,60.57,19.03,86.44c14.25,24.42,35.83,44.49,61.27,56.84
			c27.4,13.37,59.13,17.62,89.08,11.92c28.59-5.29,55.37-19.65,75.69-40.42c21.92-22.16,36.28-51.63,40.17-82.55
			c3.83-29.01-1.45-59.14-14.96-85.1c-13.76-26.61-36.04-48.72-62.8-62.22C186.833,7.32,157.283,2.34,128.853,6.2z"/>
	</g>
	<g>
		<path fill="#FFFFFF" d="M129.843,9.23c26.07-3.36,53.09,0.69,76.92,11.83c28.81,13.28,52.79,36.71,66.81,65.17
			c13.39,26.79,17.73,57.9,12.53,87.37c-4.96,28.63-19.1,55.55-39.82,75.9c-21.22,21.05-49.34,35.01-78.96,39.07
			c-26.28,3.67-53.59-0.2-77.71-11.3c-29.11-13.22-53.37-36.78-67.5-65.46c-13.68-27.34-17.92-59.2-12.22-89.21
			c5.43-29.1,20.38-56.31,42.01-76.52C73.153,26.01,100.843,12.89,129.843,9.23z M97.623,24.77c-1.34,2.29,1.01,5.29,1.22,7.83
			c-1.01,0.79-2.02,1.58-3.01,2.4c1.2,0.52,2.4,1.03,3.61,1.54c-0.51,2.41,0.32,6.29-3.24,6.31c0.55,4.77,1.95,9.41,4.08,13.7
			c0.52,1.55,2.24,1.98,3.47,2.79c0.41-5.7-3.48-10.41-5.36-15.53c0.64-0.56,1.9-1.68,2.54-2.23c1.04,1.57,1.92,3.25,3.06,4.75
			c0.69-0.25,2.07-0.76,2.75-1.01c0.05,0.14,0.15,0.41,0.19,0.54c-1.15,1.1-2.26,2.25-3.25,3.49c1.5-0.24,3-0.52,4.49-0.84
			c0.37,0.78,1.11,2.32,1.48,3.1c0.64-2.13,1.23-4.28,2.03-6.36c-0.79-0.16-2.37-0.48-3.16-0.64c0.26-0.4,0.78-1.2,1.04-1.6
			c-1.69-1.49-1.31-3.53-1.02-5.48c1.34-0.57,2.68-1.15,4.06-1.63c2.17,3.34,3.12,7.28,4.48,10.99c-0.52,0.42-1.57,1.26-2.1,1.68
			c1.19,1,2.4,1.98,3.61,2.96c3.8-3.51,1.4-9.14-0.1-13.21c-1.16-2.05-1.44-5.36-4.06-6.02c-4.79,1.17-8.67,4.45-13.08,6.48
			c0.38-1.31,0.77-2.62,1.16-3.93c1.82-1.26,3.57-2.62,5.27-4.05c-1.61-1.54-3.68-1.3-5.68-0.82
			C101.103,27.93,100.633,24.41,97.623,24.77z M188.933,32.33c-2.63-0.24-5.66-1.43-7.66,0.99c1.38,1.43,3.14,2.34,5,3.01
			c-4.11,5.69-10.74,8.28-16.48,11.89c2.92-0.07,5.94-0.14,8.7-1.24c3.67-1.24,6.17-4.37,8.8-7.04c0.98,4.93,0.56,11.28,5.22,14.44
			c1.25,0.97,2.92,0.98,4.38,1.41c-2.92-5.97-6.44-11.78-7.33-18.51c2.37,0.39,4.92,1.73,7.29,0.62c1.53-3.7-2.99-3.69-5.37-4.6
			c0.44-2.84,3.8-6.22,1.6-8.89C190.903,26.56,190.003,29.55,188.933,32.33z M134.803,56.2c-24.72,3.36-47.69,17.28-62.31,37.46
			c-12.8,17.4-19.21,39.34-17.86,60.9c1.18,21.63,10.23,42.69,25.06,58.48c14.71,15.85,35.07,26.35,56.56,28.95
			c19.66,2.49,40.08-1.48,57.31-11.29c19.18-10.78,34.31-28.55,41.86-49.23c7.99-21.5,7.68-45.95-0.88-67.25
			c-8.16-20.62-23.92-38.1-43.59-48.34C173.863,56.86,153.923,53.49,134.803,56.2z M38.893,72.5c1.8-0.81,3.37-2.02,4.82-3.35
			c1.4,1.37,2.78,2.77,4.1,4.23c-1.7-0.44-3.39-0.93-5.12-1.27c1.04,2.23,2.76,4.01,4.43,5.78c0.63-0.96,1.26-1.92,1.89-2.88
			c0.84,1.66,1.7,3.31,2.61,4.94c0.36-1.19,0.72-2.38,1.07-3.57c3.96,0.16,6.48-3.82,6.04-7.46c-1.25-0.04-2.5-0.08-3.75-0.12
			c0.18,1.45,0.6,2.98-0.21,4.33c-1.35,0-2.69-0.23-4.03-0.39c0.14-1.49,0.3-2.98,0.47-4.47c-0.86-0.15-2.59-0.44-3.45-0.59
			c0.02,0.51,0.06,1.51,0.08,2.01c-2.25-1.55-3.35-3.81-3.56-6.48C41.673,65.77,40.273,69.19,38.893,72.5z M246.313,77.18
			c0.8,0.72,1.62,1.43,2.45,2.13c3.56-2.47,8.19-4.54,9.15-9.25C253.013,70.16,249.653,74.14,246.313,77.18z M247.863,80.03
			c-2.04-1.7-3.61-3.89-5.72-5.5c-1.61-0.52-4.03-0.5-5.02,1.09c-1.3,1.12-0.05,3.46,1.39,3.61c1.4-0.46,2.58-1.39,3.92-1.98
			c3.32,3.12,5.77,7.06,8.15,10.91c0.96,1.26,1.02,2.84,0.93,4.36c0.99,1.38,2.18,2.61,3.62,3.54c0.71-4.47-1.38-8.42-3.93-11.88
			c2.99,1.05,5.97,2.18,9.12,2.67c0.52-1.04,1.04-2.08,1.57-3.11c0.85,0.32,2.53,0.95,3.37,1.27c0.55-2.18,1.82-4.17,2.04-6.43
			c-1.55-1.01-2.97,0.59-4.36,1.07c-1.16-0.72-2.32-1.44-3.47-2.16c1.48-1.6,2.62-3.45,1.59-5.65
			C256.513,74.34,252.763,78.22,247.863,80.03z M35.703,73.85c-1.77,2.81-3.03,5.92-4.45,8.92c3.28-0.19,5.25-3.03,7.67-4.85
			c-0.72,2.14-1.42,4.71-4.32,4.51c4.07,2.84,8.15,5.7,11.83,9.04c0.96,0.84,2.42,0.37,3.58,0.62c-0.53-2.63-1.13-5.36-3.06-7.36
			c-0.18,0.81-0.54,2.43-0.72,3.24c-0.94-0.55-1.88-1.11-2.82-1.66c0.18-0.73,0.55-2.2,0.74-2.94c1.66,1.06,3.65,1.13,5.56,1.38
			c0.1-2.57-1.42-4.77-3.71-1.99c-1.64-2.58-2.87-5.65-5.68-7.22C38.913,74.87,37.323,72.96,35.703,73.85z M51.173,86.66
			c2.48,2.87,5.29,5.74,9.19,6.47c0.94-2.45,1.82-4.94,2.34-7.52c-1.48,1.41-2.8,2.95-4.19,4.44c0.48-2.19,2.7-5.31-0.21-6.72
			c-0.77,1.51-1.39,3.09-2.06,4.65c-1.09-0.57-2.18-1.14-3.27-1.71c1.27-1.51,2.54-3.02,3.78-4.54c2.62,1.26,5.02,2.91,7.67,4.11
			c1.07-4.32-3.68-6.82-6.96-8.28C54.293,79.61,53.053,83.54,51.173,86.66z M67.113,87.24c-2.12,3.6-4.87,6.85-6.47,10.76
			c0.89-0.17,2.67-0.5,3.56-0.67c2.46-4.59,7.11-8.55,6.9-14.13C69.563,84.31,68.073,85.55,67.113,87.24z M243.053,84.74
			c0.81,0.78,1.63,1.56,2.46,2.34c-1.45,0.24-2.88,0.5-4.31,0.78c-1.49-1.56-3.03-3.08-4.66-4.47c0.2,2.51,1.09,4.87,2.04,7.18
			c-1.52,0.64-3.06,1.25-4.59,1.86c-0.45-0.64-1.34-1.92-1.79-2.56c-0.85,1.67-3.37,3.46-1.54,5.35c3.16,1.96,6.54-0.53,9.13-2.29
			c1.31,1,2.56,2.34,4.33,2.37c-0.15-2.24-1.04-4.39-0.91-6.65c1.83,0.4,3.59,1.19,5.5,1.25c0.43-2.84-1.47-5.22-3.51-6.91
			C244.463,83.55,243.743,84.13,243.053,84.74z M30.483,144.71c-3.05,0.88-4.07,5.24-1.68,7.36c2.13,2.3,6.38,1.23,7.25-1.77
			C37.313,147.07,33.733,143.43,30.483,144.71z M262.673,144.91c-2.83,1.2-3.44,5.44-0.99,7.35c2.28,2.17,6.49,0.81,7.13-2.27
			C269.853,146.61,265.843,143.18,262.673,144.91z M41.303,182.51c-4.33,1.62-8.75,3.08-13.23,4.24c-0.39-0.09-1.17-0.26-1.56-0.35
			c0.05-1.35,1.33-2.24,1.94-3.34c-1.21-0.34-2.64-1.19-3.38,0.37c-0.81,2.78,1.41,5.31,4.25,5.21c4.88-0.49,9.35-2.79,14.08-3.94
			c0.47,0.5,1.4,1.5,1.86,2c-0.79-2.4-1.57-4.81-2.09-7.29C42.583,180.44,42.673,182.17,41.303,182.51z M251.393,185.53
			c0.54-0.36,1.63-1.09,2.17-1.45c2.06,2.31,3.94,4.77,5.81,7.24c-3.05,0.76-6.1,1.65-9.25,1.72c-0.15-0.66-0.45-1.98-0.6-2.64
			c-0.84,2.56-1.81,5.08-2.94,7.53c3.44-2.53,7.82-2.9,11.87-3.75c2.72-0.59,5.14,1.27,7.59,2.14c-0.09,1.05-0.17,2.1-0.25,3.16
			c0.86-2.18,1.72-4.34,2.67-6.47c-3.39,0.64-7.23-0.67-9.26-3.49c-2.31-3.05-5.05-6.05-5.55-10
			C252.983,181.55,252.203,183.55,251.393,185.53z M46.893,193.65c-4.85,2.32-9.76,4.51-14.72,6.57c-0.49-0.44-1.49-1.32-1.98-1.76
			c0.97,2.38,1.96,4.75,2.89,7.14c0.04-0.73,0.14-2.19,0.18-2.93c4.45-1.96,8.79-4.21,13.35-5.9c1.55-0.92,2.6,0.67,3.71,1.5
			c-1.36-2.52-2.49-5.15-3.58-7.78C46.793,191.54,46.843,192.59,46.893,193.65z M245.053,200.81c-2.61,4.24-5.26,8.46-7.87,12.69
			c0.96,0.78,1.92,1.57,2.88,2.36c-1.09-2.48-0.34-4.9,1.06-7.07c4.64,2.88,9.29,5.74,13.85,8.74c-0.1,0.76-0.29,2.28-0.39,3.04
			c1.38-2.42,2.82-4.81,4.32-7.16c-0.82,0.62-1.63,1.25-2.43,1.88c-4.74-2.78-9.36-5.75-13.99-8.7c1.47-2.14,3.16-4.32,6.09-3.85
			C247.393,202.11,246.223,201.46,245.053,200.81z M51.973,201.18c-0.06,1.37-0.21,2.74-0.44,4.09c-3.99,2.95-8.36,5.32-12.55,7.98
			c-0.85-0.6-1.7-1.2-2.55-1.79c1.26,1.99,2.49,4.01,3.71,6.04c-0.16-0.76-0.49-2.27-0.66-3.03c3.69-2.56,7.51-4.92,11.39-7.19
			c-1.96,6.25-4.22,12.4-6.16,18.65c5.23-3.01,10.17-6.54,15.5-9.39c0.57,0.5,1.71,1.5,2.28,2c-1.27-2.09-2.56-4.16-3.85-6.22
			c0.23,1.02,0.48,2.04,0.72,3.06c-3.54,2.43-7.2,4.67-10.85,6.93c1.65-5.16,3.54-10.23,5.19-15.37
			C54.653,204.83,52.693,203.02,51.973,201.18z M229.153,222.98c0.59-0.29,1.79-0.88,2.38-1.18c2.58,1.46,4.64,3.63,6.9,5.5
			c2.17,2.03,5.2,3.72,5.49,7.01c1.05-1.5,2.22-2.91,3.46-4.26c-3.7-0.45-5.94-3.7-8.71-5.81c-2.01-2-5.32-3.61-4.98-6.92
			C232.273,219.28,230.733,221.15,229.153,222.98z M50.563,233.07c1.41,1.11,2.77,2.29,4.09,3.51c-1.45-2.86,1.91-3.59,3.86-4.37
			c2.12,1.39,3.81,3.32,5.62,5.09c-1.2,1.87-1.79,5.96-4.83,3.9c1.62,1.5,3.15,3.08,4.64,4.7c1.3-7.03,4.82-13.35,7.03-20.1
			C64.113,228.02,57.883,232.61,50.563,233.07z M223.883,229.13c-2.05,1.05-4.62,2.01-5.39,4.43c-1.17,2.71,0.85,6.17,3.85,6.29
			c3.36,0.05,6.58-1.44,9.96-1.17c2.81,0.79,2.41,4.78,0.11,5.99c-2.21,1.93-5.05,0.61-7.43-0.16c1.2,1.28,2.41,2.56,3.6,3.86
			c2.13-1.74,4.83-2.88,6.5-5.14c1.79-2.66,0.4-6.82-2.84-7.49c-3.69-0.39-7.21,1.54-10.9,1.24c-2.65-0.75-1.98-4.67,0.19-5.6
			c2.34-1.64,4.91,0,7.15,0.92c-1.49-1.61-2.96-3.24-4.42-4.87C224.173,227.86,223.983,228.71,223.883,229.13z M79.333,235.15
			c0.49,1.17,0.99,2.34,1.49,3.51c-2.75,4.3-5.45,8.63-8.41,12.8c-0.75-0.18-2.26-0.54-3.02-0.72c1.92,1.21,3.83,2.45,5.62,3.86
			c-0.42-1.22-1.71-2.6-0.57-3.84c1.93-3.46,4.28-6.65,6.42-9.97c0.82,6.49,1.33,13.02,2.29,19.49c3.5-4.89,6.47-10.13,10.02-14.98
			c1.01,0.3,2.02,0.61,3.03,0.91c-1.97-1.32-3.95-2.63-5.95-3.91c0.42,0.58,1.25,1.74,1.66,2.32c-2.23,3.34-3.78,7.35-6.9,9.97
			c-0.85-5.61-1.23-11.28-1.9-16.91C81.853,236.83,80.593,235.99,79.333,235.15z M198.483,246.83c2.99,1.07,4.3,4.09,5.96,6.53
			c1.73,2.9,4.24,5.58,4.44,9.12c1.8-1.33,3.68-2.56,5.57-3.77c-0.77,0.16-2.31,0.5-3.08,0.66c-1.46-2.09-2.91-4.19-4.13-6.42
			c0.44-0.2,1.33-0.58,1.78-0.78c3.4,0.99,6.61,2.51,9.96,3.63c1.39-0.95,2.8-1.87,4.23-2.77c-4.22,1.09-8.11-1.13-11.94-2.56
			c0.64-1.88,2.23-3.83,1.28-5.87c-0.77-2.03-3.15-3.23-5.23-2.62C204.133,243.11,201.463,245.28,198.483,246.83z M102.153,249.43
			c0.52,0.49,1.56,1.46,2.08,1.94c-1.13,3.83-2.67,7.54-3.67,11.42c-2.26,6.5,8.15,11.08,12.19,6.29c2.49-3.73,3.01-8.34,5-12.3
			c0.68-0.29,2.03-0.88,2.7-1.17c-2.11-0.59-4.17-1.33-6.23-2.05c0.81,0.64,1.63,1.29,2.44,1.94c-1.28,4.05-2.4,8.2-4.26,12.03
			c-2.07,4.51-10.83,2.25-9.6-2.94c0.89-4.07,2.23-8.07,3.95-11.87c0.7-0.23,2.08-0.71,2.78-0.95
			C107.033,251.13,104.593,250.27,102.153,249.43z M180.143,254.62c0.58,0.11,1.74,0.34,2.32,0.45c2.73,4.47,4.08,9.65,6.19,14.44
			c-0.32,0.54-0.96,1.63-1.28,2.17c4.15-1.72,8.31-3.41,12.49-5.05c-0.03-1.71-0.07-3.41-0.08-5.11c-0.59,1.52-1.14,3.07-1.93,4.51
			c-1.97,1.42-4.33,2.09-6.56,2.96c-1.09-2.53-2.14-5.07-3.17-7.61c2.67-1.07,5.93-3.01,8.16-0.11c-0.88-1.9-1.63-3.87-2.22-5.87
			c-0.33,3.29-3.59,4.13-6.17,5.27c-0.97-2.33-1.91-4.67-2.85-7.01c2.34-0.83,4.61-2.2,7.14-2.27c0.95,0.56,1.87,1.22,2.78,1.87
			c-0.67-1.25-1.32-2.51-1.97-3.77C188.703,251.17,184.463,253.02,180.143,254.62z M171.393,256.55c0.54,0.25,1.62,0.77,2.16,1.03
			c0.17,4.76-1.7,9.37-2.47,14.04c-2.66-4.05-5.43-8.04-7.86-12.24c0.59-0.44,1.77-1.3,2.36-1.74c-2.46,0.4-4.93,0.75-7.41,0.93
			c5.81,4.53,8.37,11.9,13,17.49c1.27-5.22,2.27-10.5,3.46-15.74c0.35-1.84,1.32-3.45,2.42-4.92
			C175.173,255.84,173.293,256.23,171.393,256.55z M123.123,256.33c0.93,0.76,1.83,1.55,2.7,2.39c0,5.07-1.24,10.07-1.86,15.1
			c-0.68,0.29-2.04,0.87-2.73,1.15c2.04,0.11,4.08,0.26,6.12,0.46c-0.48-0.36-1.43-1.1-1.91-1.46c-0.06-4.37,0.99-8.67,1.6-12.98
			c3.57,5.39,6.7,11.06,10.19,16.5c1.31-5.58,1.44-11.37,2.76-16.93c0.57-0.44,1.72-1.32,2.29-1.76c-2.11-0.12-4.21-0.36-6.3-0.62
			c0.89,0.43,1.78,0.86,2.67,1.29c-0.37,4.32-1.02,8.61-1.64,12.89c-3.16-5.08-6.2-10.23-9.3-15.34
			C126.173,256.79,124.643,256.56,123.123,256.33z M146.073,258.8c0.89,0.48,1.78,0.96,2.67,1.45c0.16,5.39,0.54,10.77,0.36,16.16
			c-0.75,0.2-2.27,0.6-3.03,0.8c2.75,0.06,5.5,0.04,8.25,0.23c-0.81-0.6-1.58-1.24-2.32-1.91c-0.58-5.18-0.5-10.41-0.58-15.62
			c0.57-0.29,1.72-0.88,2.29-1.17C151.163,258.79,148.623,258.83,146.073,258.8z"/>
	</g>
	<path fill="#FFFFFF" d="M103.213,39.63c0.71,0.05,2.13,0.13,2.84,0.18c-0.25,1.12-0.5,2.24-0.74,3.37
		C104.623,41.99,103.913,40.81,103.213,39.63z"/>
	<g>
		<path fill="#FFFFFF" d="M105.213,108.83c22.25-10.06,44.37-20.42,66.65-30.43c10.57,19.48,15.57,41.95,13.85,64.07
			c-0.91,13.4-4.38,26.55-9.72,38.86c-28.9,0.13-57.81-0.01-86.71,0.07c-2.51,0.11-5.05-0.35-7.17-1.75
			c-5.91-3.7-11.17-9.25-12.63-16.27c6.42-1.19,11.53,3.87,17.84,3.53c7.16,0.21,13.96-3.5,18.34-9.03
			c5.67-6.32,5.81-15.36,5.87-23.37C111.693,125.56,109.263,116.76,105.213,108.83z M145.393,111.05c-0.13,3.5-0.14,7.01-0.13,10.51
			c-3.69,0.01-7.39,0.04-11.07-0.14c2.69-1.7,5.58-3.04,8.59-4.06c0.04-1.96,0.06-3.91,0.09-5.87c-8.69,1.62-16.21,7.3-20.61,14.9
			c7.67,0.11,15.34,0.02,23.01,0.05c0,3.97,0,7.94-0.01,11.9c-1.2-0.02-2.39-0.04-3.58-0.07c0.02-2.75,0.02-5.51,0.03-8.27
			c-7.07,0.03-14.13-0.08-21.2,0.08c-0.38,1.6-0.75,3.2-1.13,4.8c5.81-0.01,11.62-0.01,17.43-0.01c0.02,1.14,0.04,2.28,0.06,3.42
			c-6.03,0.05-12.07,0.01-18.11,0.03c-0.25,7.5,1.86,15.17,6.76,20.96c4.3,5.42,10.65,8.8,17.3,10.42c0-2,0-3.99,0-5.98
			c-9.53-2.44-16.91-10.75-18.17-20.51c4.06-0.03,8.13-0.03,12.2-0.02c-0.02,0.82-0.04,2.45-0.05,3.27
			c-2.55-0.02-5.1-0.02-7.65-0.02c0.77,1.65,1.55,3.3,2.34,4.94c4.6,0.09,9.2,0.05,13.8,0.06c-0.01,0.71-0.05,2.12-0.07,2.83
			c-3.72-0.03-7.44-0.06-11.16,0.07c3.14,2.89,7.04,4.76,11.2,5.64c-0.01,3.34,0.01,6.69,0.13,10.03c1.91-0.01,3.81-0.02,5.72-0.04
			c0.03-3.35,0.03-6.69,0.06-10.03c3.99-0.97,7.76-2.77,10.79-5.58c-3.63-0.14-7.26-0.11-10.88-0.14c0.03-0.94,0.07-1.86,0.11-2.79
			c4.56-0.16,9.19,0.42,13.71-0.31c0.94-1.44,1.64-3.02,2.41-4.56c-2.58-0.09-5.16-0.13-7.74-0.14c0.01-0.81,0.02-2.43,0.03-3.24
			c4.06,0.01,8.12,0,12.17,0.03c-1.27,9.79-8.69,18.07-18.22,20.56c0.02,1.96,0.03,3.93,0.06,5.9c7.41-1.68,14.34-5.86,18.66-12.21
			c4.01-5.51,5.51-12.41,5.37-19.14c-6.02-0.01-12.05,0.01-18.08-0.02c0.01-1.14,0.02-2.29,0.04-3.43c5.83,0.01,11.66,0.01,17.49,0
			c-0.46-1.63-0.91-3.25-1.37-4.87c-6.98-0.01-13.96,0.01-20.94,0c-0.01,2.8-0.02,5.6-0.05,8.4c-1.21-0.06-2.42-0.11-3.62-0.17
			c0.04-3.93,0.04-7.87,0.04-11.8c7.66-0.01,15.31,0.06,22.97-0.03c-4.33-7.67-11.91-13.14-20.51-14.99
			c-0.02,1.96-0.04,3.93-0.05,5.89c2.97,1.05,5.87,2.32,8.48,4.12c-3.63,0.2-7.26,0.15-10.89,0.14c-0.01-3.48,0-6.97-0.03-10.45
			C149.213,111.08,147.303,111.06,145.393,111.05z"/>
	</g>
	<path fill="#FFFFFF" d="M253.093,81.91c1.57-1.23,3.18-2.43,4.83-3.57c0.92,0.96,1.85,1.92,2.78,2.89
		c-1.56,0.12-3.47-0.59-4.53,0.95c-1.53,2.22-4.27,1.53-6.52,1.18C250.783,82.86,251.933,82.37,253.093,81.91z"/>
	<path fill="#FFFFFF" d="M41.303,79.93c0.56,1.67,0.39,3.42,0,5.11C39.143,83.63,40.233,81.66,41.303,79.93z"/>
	<path fill="#FFFFFF" d="M141.693,143.19c4.36,0,8.72,0,13.08,0c0,0.81-0.01,2.44-0.02,3.26c-4.33-0.02-8.67-0.02-13.01,0.01
		C141.733,145.64,141.703,144.01,141.693,143.19z"/>
	<path fill="#FFFFFF" d="M219.603,155.82c2.98-1.54,6.21-2.51,9.28-3.82c-1.26,9.96-4.32,20.33-11.38,27.75
		c-5.24,3.21-11.91,0.98-17.72,1.63c2.56-7.33,5.21-14.63,7.7-21.97c2.91-0.86,5.81-1.7,8.71-2.56c-1.2,3.55-2.68,7.02-3.59,10.67
		c0.45,0.13,1.35,0.37,1.8,0.5C217.073,164.42,217.133,159.5,219.603,155.82z"/>
	<path fill="#FFFFFF" d="M196.543,161.64c2.75-0.52,5.5-1.06,8.25-1.61c-2.5,7.12-5.01,14.23-7.52,21.35c-2.31,0-4.62,0-6.93,0
		c-0.42-1.75-0.85-3.48-1.31-5.21c-0.61,1.73-1.2,3.47-1.8,5.2c-2.64,0.01-5.29,0.01-7.94,0.01c2.61-5.96,4.78-12.12,6.48-18.41
		c2.37-0.26,4.74-0.53,7.12-0.81c0.42,2.05,0.83,4.1,1.23,6.16C194.943,166.1,195.753,163.87,196.543,161.64z"/>
	<path fill="#FFFFFF" d="M115.033,199.74c0.6-2.87,3.02-4.68,5.55-5.8c1.21,0.81,0.96,2.28,1.03,3.52c0,4.82-0.06,9.64-0.02,14.46
		c-0.52,0.05-1.56,0.15-2.08,0.2c-0.09-5.08-0.07-10.16-0.04-15.24C118.023,197.87,116.553,198.85,115.033,199.74z"/>
	<g>
		<path fill="#FFFFFF" d="M134.353,206.21c-5.31-1.23-5.36-10.53,0.05-11.69c2.87-0.81,6.69-0.16,7.97,2.88
			c1.43,3.95,1.52,8.76-0.75,12.42c-3.05,3.91-10.22,2.73-11.58-2.24c2.95-0.29,4.3,3.49,7.26,2.81c2.9-0.23,3.27-3.61,4.29-5.7
			C139.313,205.65,136.893,206.93,134.353,206.21z M134.783,196.21c-3.44,1.66-2.69,8.51,1.53,8.53c4.32,0.6,5.66-5.69,2.89-8.1
			C137.933,195.73,136.203,195.71,134.783,196.21z"/>
	</g>
	<g>
		<path fill="#FFFFFF" d="M150.603,194.89c3.04-1.35,7.39-0.7,8.92,2.57c1.5,3.5,1.45,7.69,0.05,11.22
			c-2.21,5.14-11.19,4.33-12.16-1.32C146.503,203.19,146.333,197.29,150.603,194.89z M151.573,196.61
			c-2.88,2.77-2.43,7.56-1.43,11.1c0.77,3.15,5.69,3.42,6.98,0.53c1.39-2.99,1.27-6.62,0.26-9.72
			C156.683,196.08,153.593,195.52,151.573,196.61z"/>
	</g>
	<g>
		<path fill="#FFFFFF" d="M165.253,197.58c2.27-5.07,11.4-4.34,11.94,1.64c-2.51-0.94-4.49-4.03-7.45-3.17
			c-2.41,0.53-2.66,3.46-3.67,5.28c2.81-0.89,6.1-2.33,8.83-0.41c3.37,2.68,3,9.61-1.57,10.84c-2.98,0.95-7.01,0.23-8.28-2.96
			C163.803,205.24,163.743,201.08,165.253,197.58z M168.793,202.07c-2.15,1.27-2.18,4.35-1.4,6.44c1.64,3.42,7.89,2.12,7.44-1.97
			C175.583,203.1,171.853,200.28,168.793,202.07z"/>
	</g>
	<path fill="#FFFFFF" d="M59.713,231.77c2.52-1.13,5.06-2.21,7.61-3.28c-0.96,2.56-1.94,5.12-2.93,7.67
		C62.833,234.7,61.273,233.23,59.713,231.77z"/>
	<path fill="#FFFFFF" d="M202.393,245.5c2.18-1.24,5.34-2.96,7.15-0.18c2.23,2.7-0.53,5.59-2.48,7.38
		C205.423,250.35,203.873,247.94,202.393,245.5z"/>
</g>
</svg>
