<?xml version="1.0" encoding="UTF-8"?>
<svg xmlns="http://www.w3.org/2000/svg" xmlns:xlink="http://www.w3.org/1999/xlink" width="1920px" height="1920px" viewBox="0 0 1920 1920" version="1.1">
<g id="surface1">
<path style=" stroke:none;fill-rule:nonzero;fill:rgb(100%,100%,100%);fill-opacity:1;" d="M 853.03125 14.996094 C 1033.523438 -4.523438 1219.511719 28.054688 1381.773438 109.769531 C 1566.792969 201.828125 1720.066406 355.878906 1811.285156 541.347656 C 1895 709.816406 1925.96875 903.5 1901.078125 1089.808594 C 1875.929688 1283.492188 1788.527344 1468.121094 1655.617188 1611.054688 C 1522.960938 1754.828125 1345.183594 1856.453125 1153.570312 1896.402344 C 960.277344 1937.324219 754.25 1916.960938 573.367188 1837.253906 C 389.835938 1757.21875 233.199219 1617.648438 132.285156 1444.847656 C 45.335938 1297.003906 -0.109375 1125.300781 2.089844 953.859375 C 3.121094 736.066406 82.703125 520.015625 222.53125 353.164062 C 378.460938 164.523438 609.441406 39.886719 853.03125 14.996094 Z M 832.988281 40.082031 C 631.808594 66.199219 440.777344 161.550781 298.363281 305.90625 C 147.089844 457.246094 51.089844 662.238281 31.890625 875.3125 C 13.207031 1068.347656 56.714844 1266.875 154.914062 1434.117188 C 247.035156 1591.984375 386.539062 1721.730469 551 1801.566406 C 728.132812 1888 933.253906 1915.476562 1126.871094 1878.625 C 1311.695312 1844.429688 1484.820312 1751.597656 1616.179688 1617.324219 C 1757.886719 1474.070312 1850.71875 1283.554688 1875.867188 1083.667969 C 1900.625 896.128906 1866.492188 701.347656 1779.15625 533.527344 C 1690.203125 361.503906 1546.167969 218.570312 1373.175781 131.296875 C 1207.808594 47.320312 1016.777344 15.128906 832.988281 40.082031 Z M 832.988281 40.082031 "/>
<path style=" stroke:none;fill-rule:nonzero;fill:rgb(100%,100%,100%);fill-opacity:1;" d="M 839.390625 59.667969 C 1007.921875 37.949219 1182.597656 64.128906 1336.648438 136.144531 C 1522.894531 221.996094 1677.917969 373.460938 1768.550781 557.445312 C 1855.113281 730.632812 1883.171875 931.75 1849.554688 1122.261719 C 1817.488281 1307.34375 1726.078125 1481.375 1592.132812 1612.929688 C 1454.953125 1749.011719 1273.167969 1839.257812 1081.683594 1865.503906 C 911.792969 1889.226562 735.242188 1864.210938 579.316406 1792.453125 C 391.128906 1706.988281 234.296875 1554.683594 142.953125 1369.277344 C 54.515625 1192.535156 27.105469 986.570312 63.953125 792.566406 C 99.058594 604.445312 195.703125 428.542969 335.535156 297.890625 C 472.910156 168.144531 651.914062 83.328125 839.390625 59.667969 Z M 631.097656 160.128906 C 622.4375 174.933594 637.628906 194.328125 638.984375 210.746094 C 632.457031 215.855469 625.925781 220.960938 619.527344 226.261719 C 627.285156 229.625 635.042969 232.921875 642.863281 236.21875 C 639.566406 251.796875 644.933594 276.878906 621.917969 277.011719 C 625.472656 307.847656 634.523438 337.84375 648.292969 365.574219 C 651.65625 375.597656 662.773438 378.375 670.726562 383.613281 C 673.378906 346.761719 648.230469 316.316406 636.074219 283.214844 C 640.214844 279.597656 648.359375 272.355469 652.496094 268.800781 C 659.21875 278.949219 664.910156 289.808594 672.277344 299.507812 C 676.738281 297.890625 685.660156 294.59375 690.054688 292.976562 C 690.378906 293.882812 691.027344 295.628906 691.285156 296.46875 C 683.851562 303.578125 676.675781 311.015625 670.273438 319.03125 C 679.972656 317.480469 689.667969 315.667969 699.300781 313.601562 C 701.691406 318.640625 706.476562 328.597656 708.867188 333.640625 C 713.003906 319.871094 716.820312 305.972656 721.992188 292.523438 C 716.882812 291.492188 706.667969 289.421875 701.5625 288.386719 C 703.242188 285.800781 706.605469 280.628906 708.285156 278.042969 C 697.359375 268.414062 699.816406 255.222656 701.691406 242.617188 C 710.355469 238.933594 719.015625 235.183594 727.9375 232.082031 C 741.96875 253.671875 748.109375 279.144531 756.898438 303.128906 C 753.539062 305.84375 746.75 311.273438 743.324219 313.988281 C 751.015625 320.453125 758.839844 326.789062 766.660156 333.125 C 791.226562 310.433594 775.710938 274.035156 766.015625 247.726562 C 758.515625 234.472656 756.707031 213.074219 739.769531 208.808594 C 708.804688 216.371094 683.71875 237.574219 655.210938 250.699219 C 657.667969 242.230469 660.1875 233.761719 662.710938 225.292969 C 674.476562 217.148438 685.789062 208.355469 696.777344 199.109375 C 686.371094 189.15625 672.988281 190.707031 660.058594 193.808594 C 653.59375 180.558594 650.558594 157.800781 631.097656 160.128906 Z M 1221.386719 209.003906 C 1204.382812 207.449219 1184.796875 199.757812 1171.867188 215.402344 C 1180.785156 224.644531 1192.164062 230.527344 1204.1875 234.859375 C 1177.621094 271.644531 1134.757812 288.386719 1097.652344 311.726562 C 1116.527344 311.273438 1136.050781 310.820312 1153.894531 303.710938 C 1177.621094 295.691406 1193.78125 275.457031 1210.78125 258.199219 C 1217.117188 290.070312 1214.402344 331.121094 1244.527344 351.546875 C 1252.609375 357.816406 1263.40625 357.882812 1272.84375 360.664062 C 1253.96875 322.070312 1231.210938 284.507812 1225.457031 241.003906 C 1240.777344 243.523438 1257.265625 252.1875 1272.585938 245.011719 C 1282.476562 221.089844 1253.253906 221.15625 1237.871094 215.273438 C 1240.714844 196.914062 1262.4375 175.0625 1248.214844 157.800781 C 1234.121094 171.699219 1228.300781 191.03125 1221.386719 209.003906 Z M 871.453125 363.3125 C 711.648438 385.035156 563.15625 475.023438 468.640625 605.480469 C 385.894531 717.964844 344.457031 859.796875 353.183594 999.175781 C 360.8125 1139.007812 419.316406 1275.152344 515.1875 1377.226562 C 610.28125 1479.691406 741.902344 1547.570312 880.828125 1564.378906 C 1007.921875 1580.476562 1139.929688 1554.8125 1251.316406 1491.394531 C 1375.308594 1421.703125 1473.117188 1306.828125 1521.925781 1173.140625 C 1573.578125 1034.148438 1571.574219 876.089844 1516.238281 738.390625 C 1463.484375 605.089844 1361.601562 492.089844 1234.445312 425.890625 C 1123.960938 367.578125 995.058594 345.792969 871.453125 363.3125 Z M 251.429688 468.6875 C 263.066406 463.449219 273.214844 455.628906 282.589844 447.03125 C 291.640625 455.886719 300.5625 464.9375 309.09375 474.375 C 298.105469 471.53125 287.179688 468.363281 275.996094 466.164062 C 282.71875 480.582031 293.835938 492.089844 304.632812 503.53125 C 308.707031 497.324219 312.777344 491.121094 316.851562 484.914062 C 322.28125 495.644531 327.839844 506.3125 333.722656 516.847656 C 336.050781 509.15625 338.378906 501.460938 340.640625 493.769531 C 366.242188 494.804688 382.53125 469.074219 379.6875 445.542969 C 371.605469 445.285156 363.527344 445.027344 355.445312 444.769531 C 356.609375 454.140625 359.324219 464.03125 354.089844 472.757812 C 345.359375 472.757812 336.699219 471.273438 328.035156 470.238281 C 328.941406 460.605469 329.976562 450.972656 331.074219 441.339844 C 325.515625 440.371094 314.332031 438.496094 308.769531 437.527344 C 308.898438 440.824219 309.160156 447.289062 309.289062 450.519531 C 294.742188 440.5 287.632812 425.890625 286.273438 408.628906 C 269.402344 425.179688 260.351562 447.289062 251.429688 468.6875 Z M 1592.328125 498.941406 C 1597.5 503.597656 1602.800781 508.1875 1608.164062 512.710938 C 1631.179688 496.742188 1661.109375 483.363281 1667.316406 452.914062 C 1635.640625 453.558594 1613.917969 479.289062 1592.328125 498.941406 Z M 1602.347656 517.367188 C 1589.160156 506.375 1579.007812 492.21875 1565.367188 481.808594 C 1554.960938 478.449219 1539.316406 478.578125 1532.917969 488.855469 C 1524.511719 496.097656 1532.59375 511.222656 1541.902344 512.195312 C 1550.953125 509.21875 1558.582031 503.207031 1567.242188 499.394531 C 1588.707031 519.5625 1604.542969 545.035156 1619.929688 569.921875 C 1626.136719 578.070312 1626.523438 588.28125 1625.941406 598.109375 C 1632.34375 607.03125 1640.035156 614.980469 1649.34375 620.992188 C 1653.933594 592.097656 1640.421875 566.5625 1623.9375 544.195312 C 1643.269531 550.980469 1662.53125 558.285156 1682.894531 561.453125 C 1686.257812 554.730469 1689.621094 548.007812 1693.046875 541.347656 C 1698.539062 543.417969 1709.402344 547.492188 1714.832031 549.558594 C 1718.386719 535.464844 1726.597656 522.601562 1728.019531 507.992188 C 1718 501.460938 1708.820312 511.804688 1699.832031 514.910156 C 1692.335938 510.253906 1684.835938 505.601562 1677.402344 500.945312 C 1686.96875 490.601562 1694.339844 478.640625 1687.679688 464.421875 C 1658.265625 480.582031 1634.023438 505.664062 1602.347656 517.367188 Z M 230.808594 477.414062 C 219.363281 495.578125 211.21875 515.683594 202.039062 535.078125 C 223.242188 533.851562 235.980469 515.492188 251.625 503.726562 C 246.96875 517.558594 242.445312 534.171875 223.695312 532.878906 C 250.007812 551.242188 276.382812 569.730469 300.171875 591.320312 C 306.378906 596.75 315.816406 593.714844 323.316406 595.328125 C 319.890625 578.328125 316.011719 560.679688 303.535156 547.75 C 302.371094 552.984375 300.042969 563.457031 298.878906 568.695312 C 292.804688 565.140625 286.726562 561.519531 280.648438 557.964844 C 281.8125 553.246094 284.207031 543.742188 285.433594 538.957031 C 296.164062 545.808594 309.03125 546.261719 321.378906 547.878906 C 322.023438 531.265625 312.195312 517.042969 297.394531 535.015625 C 286.792969 518.335938 278.839844 498.488281 260.675781 488.339844 C 251.558594 484.007812 241.28125 471.660156 230.808594 477.414062 Z M 330.816406 560.226562 C 346.847656 578.78125 365.011719 597.332031 390.226562 602.050781 C 396.300781 586.214844 401.992188 570.117188 405.351562 553.4375 C 395.785156 562.554688 387.25 572.507812 378.265625 582.140625 C 381.367188 567.984375 395.71875 547.8125 376.910156 538.699219 C 371.929688 548.460938 367.921875 558.675781 363.589844 568.757812 C 356.542969 565.074219 349.5 561.390625 342.453125 557.703125 C 350.660156 547.945312 358.871094 538.183594 366.886719 528.355469 C 383.824219 536.5 399.339844 547.167969 416.472656 554.925781 C 423.390625 526.996094 392.683594 510.835938 371.476562 501.398438 C 350.984375 514.652344 342.96875 540.054688 330.816406 560.226562 Z M 433.863281 563.976562 C 420.15625 587.25 402.378906 608.257812 392.035156 633.535156 C 397.789062 632.4375 409.296875 630.304688 415.050781 629.203125 C 430.953125 599.53125 461.011719 573.929688 459.65625 537.859375 C 449.699219 545.035156 440.066406 553.050781 433.863281 563.976562 Z M 1571.25 547.8125 C 1576.488281 552.855469 1581.789062 557.898438 1587.15625 562.941406 C 1577.78125 564.492188 1568.535156 566.171875 1559.292969 567.984375 C 1549.660156 557.898438 1539.703125 548.074219 1529.167969 539.085938 C 1530.460938 555.3125 1536.214844 570.570312 1542.355469 585.503906 C 1532.527344 589.640625 1522.574219 593.582031 1512.683594 597.527344 C 1509.773438 593.390625 1504.019531 585.113281 1501.109375 580.976562 C 1495.617188 591.773438 1479.324219 603.34375 1491.15625 615.5625 C 1511.582031 628.234375 1533.433594 612.136719 1550.175781 600.757812 C 1558.644531 607.222656 1566.726562 615.886719 1578.167969 616.082031 C 1577.199219 601.601562 1571.445312 587.699219 1572.285156 573.089844 C 1584.117188 575.675781 1595.496094 580.785156 1607.839844 581.171875 C 1610.621094 562.8125 1598.339844 547.425781 1585.152344 536.5 C 1580.367188 540.121094 1575.710938 543.871094 1571.25 547.8125 Z M 197.0625 935.5 C 177.34375 941.1875 170.75 969.375 186.203125 983.078125 C 199.972656 997.949219 227.445312 991.03125 233.070312 971.636719 C 241.214844 950.753906 218.070312 927.222656 197.0625 935.5 Z M 1698.089844 936.792969 C 1679.792969 944.550781 1675.851562 971.960938 1691.6875 984.308594 C 1706.425781 998.335938 1733.644531 989.542969 1737.78125 969.632812 C 1744.503906 947.78125 1718.582031 925.609375 1698.089844 936.792969 Z M 267.007812 1179.863281 C 239.015625 1190.335938 210.445312 1199.773438 181.480469 1207.273438 C 178.960938 1206.691406 173.917969 1205.59375 171.398438 1205.011719 C 171.71875 1196.28125 179.996094 1190.527344 183.9375 1183.417969 C 176.117188 1181.21875 166.871094 1175.726562 162.089844 1185.808594 C 156.851562 1203.78125 171.203125 1220.136719 189.5625 1219.492188 C 221.109375 1216.324219 250.007812 1201.453125 280.585938 1194.019531 C 283.625 1197.253906 289.636719 1203.71875 292.609375 1206.949219 C 287.503906 1191.433594 282.460938 1175.855469 279.097656 1159.820312 C 275.285156 1166.480469 275.867188 1177.664062 267.007812 1179.863281 Z M 1625.167969 1199.386719 C 1628.65625 1197.058594 1635.703125 1192.339844 1639.195312 1190.011719 C 1652.511719 1204.945312 1664.664062 1220.847656 1676.753906 1236.816406 C 1657.039062 1241.730469 1637.320312 1247.484375 1616.957031 1247.933594 C 1615.988281 1243.667969 1614.046875 1235.136719 1613.078125 1230.867188 C 1607.648438 1247.417969 1601.378906 1263.710938 1594.070312 1279.546875 C 1616.308594 1263.191406 1644.625 1260.800781 1670.808594 1255.304688 C 1688.390625 1251.492188 1704.035156 1263.515625 1719.875 1269.140625 C 1719.292969 1275.925781 1718.773438 1282.714844 1718.257812 1289.566406 C 1723.816406 1275.476562 1729.378906 1261.511719 1735.519531 1247.742188 C 1713.601562 1251.878906 1688.777344 1243.410156 1675.65625 1225.179688 C 1660.722656 1205.460938 1643.007812 1186.070312 1639.777344 1160.535156 C 1635.445312 1173.65625 1630.402344 1186.585938 1625.167969 1199.386719 Z M 303.148438 1251.878906 C 271.792969 1266.875 240.050781 1281.035156 207.988281 1294.351562 C 204.820312 1291.507812 198.355469 1285.816406 195.1875 1282.972656 C 201.457031 1298.359375 207.859375 1313.679688 213.871094 1329.132812 C 214.128906 1324.414062 214.773438 1314.972656 215.035156 1310.191406 C 243.800781 1297.519531 271.859375 1282.972656 301.335938 1272.046875 C 311.355469 1266.101562 318.144531 1276.378906 325.320312 1281.746094 C 316.527344 1265.453125 309.222656 1248.453125 302.175781 1231.449219 C 302.5 1238.238281 302.824219 1245.027344 303.148438 1251.878906 Z M 1584.179688 1298.164062 C 1567.308594 1325.574219 1550.175781 1352.855469 1533.304688 1380.203125 C 1539.511719 1385.246094 1545.714844 1390.351562 1551.921875 1395.457031 C 1544.875 1379.425781 1549.722656 1363.78125 1558.773438 1349.753906 C 1588.769531 1368.371094 1618.832031 1386.859375 1648.308594 1406.253906 C 1647.664062 1411.167969 1646.4375 1420.992188 1645.789062 1425.90625 C 1654.710938 1410.261719 1664.019531 1394.8125 1673.714844 1379.621094 C 1668.414062 1383.628906 1663.179688 1387.699219 1658.007812 1391.773438 C 1627.363281 1373.800781 1597.5 1354.601562 1567.566406 1335.53125 C 1577.070312 1321.695312 1587.996094 1307.605469 1606.9375 1310.640625 C 1599.308594 1306.570312 1591.746094 1302.367188 1584.179688 1298.164062 Z M 335.988281 1300.558594 C 335.597656 1309.414062 334.628906 1318.269531 333.144531 1326.996094 C 307.347656 1346.070312 279.097656 1361.390625 252.011719 1378.585938 C 246.515625 1374.707031 241.019531 1370.828125 235.527344 1367.015625 C 243.671875 1379.878906 251.625 1392.9375 259.511719 1406.0625 C 258.476562 1401.148438 256.34375 1391.386719 255.242188 1386.472656 C 279.097656 1369.921875 303.792969 1354.667969 328.875 1339.992188 C 316.207031 1380.394531 301.59375 1420.152344 289.054688 1460.558594 C 322.863281 1441.097656 354.800781 1418.277344 389.253906 1399.855469 C 392.941406 1403.085938 400.308594 1409.550781 403.996094 1412.785156 C 395.785156 1399.273438 387.445312 1385.890625 379.105469 1372.574219 C 380.59375 1379.167969 382.210938 1385.761719 383.761719 1392.355469 C 360.875 1408.066406 337.214844 1422.546875 313.621094 1437.15625 C 324.285156 1403.796875 336.503906 1371.023438 347.171875 1337.792969 C 353.3125 1324.152344 340.640625 1312.453125 335.988281 1300.558594 Z M 1481.394531 1441.488281 C 1485.207031 1439.613281 1492.964844 1435.796875 1496.777344 1433.859375 C 1513.457031 1443.296875 1526.773438 1457.324219 1541.386719 1469.414062 C 1555.414062 1482.539062 1575 1493.460938 1576.875 1514.730469 C 1583.664062 1505.035156 1591.226562 1495.917969 1599.242188 1487.191406 C 1575.324219 1484.28125 1560.84375 1463.273438 1542.9375 1449.632812 C 1529.941406 1436.703125 1508.542969 1426.296875 1510.742188 1404.898438 C 1501.5625 1417.566406 1491.605469 1429.65625 1481.394531 1441.488281 Z M 326.871094 1506.714844 C 335.988281 1513.890625 344.777344 1521.519531 353.3125 1529.40625 C 343.9375 1510.917969 365.660156 1506.199219 378.265625 1501.15625 C 391.972656 1510.140625 402.894531 1522.617188 414.597656 1534.0625 C 406.839844 1546.148438 403.027344 1572.589844 383.371094 1559.273438 C 393.84375 1568.96875 403.738281 1579.183594 413.367188 1589.65625 C 421.773438 1544.210938 444.527344 1503.355469 458.816406 1459.71875 C 414.46875 1474.070312 374.191406 1503.742188 326.871094 1506.714844 Z M 1447.324219 1481.246094 C 1434.070312 1488.03125 1417.457031 1494.238281 1412.480469 1509.882812 C 1404.917969 1527.402344 1417.976562 1549.769531 1437.367188 1550.546875 C 1459.089844 1550.867188 1479.90625 1541.238281 1501.757812 1542.980469 C 1519.921875 1548.089844 1517.335938 1573.882812 1502.46875 1581.703125 C 1488.179688 1594.183594 1469.820312 1585.648438 1454.4375 1580.671875 C 1462.191406 1588.945312 1470.015625 1597.21875 1477.707031 1605.625 C 1491.476562 1594.375 1508.933594 1587.007812 1519.726562 1572.394531 C 1531.300781 1555.199219 1522.3125 1528.308594 1501.367188 1523.976562 C 1477.515625 1521.453125 1454.757812 1533.929688 1430.902344 1531.992188 C 1413.773438 1527.144531 1418.105469 1501.800781 1432.132812 1495.789062 C 1447.261719 1485.1875 1463.875 1495.789062 1478.355469 1501.738281 C 1468.722656 1491.328125 1459.21875 1480.792969 1449.78125 1470.253906 C 1449.199219 1473.035156 1447.972656 1478.527344 1447.324219 1481.246094 Z M 512.859375 1520.160156 C 516.027344 1527.726562 519.261719 1535.289062 522.492188 1542.851562 C 504.714844 1570.652344 487.261719 1598.640625 468.125 1625.601562 C 463.277344 1624.4375 453.515625 1622.109375 448.601562 1620.945312 C 461.011719 1628.769531 473.359375 1636.785156 484.933594 1645.898438 C 482.21875 1638.011719 473.878906 1629.089844 481.246094 1621.074219 C 493.722656 1598.707031 508.917969 1578.085938 522.75 1556.621094 C 528.050781 1598.578125 531.347656 1640.792969 537.554688 1682.617188 C 560.179688 1651.007812 579.382812 1617.132812 602.332031 1585.777344 C 608.859375 1587.71875 615.390625 1589.722656 621.917969 1591.660156 C 609.183594 1583.128906 596.382812 1574.660156 583.453125 1566.382812 C 586.167969 1570.132812 591.535156 1577.632812 594.183594 1581.382812 C 579.769531 1602.972656 569.75 1628.898438 549.578125 1645.835938 C 544.085938 1609.566406 541.628906 1572.914062 537.296875 1536.515625 C 529.152344 1531.023438 521.003906 1525.59375 512.859375 1520.160156 Z M 1283.121094 1595.667969 C 1302.453125 1602.585938 1310.921875 1622.109375 1321.652344 1637.882812 C 1332.835938 1656.628906 1349.0625 1673.957031 1350.355469 1696.839844 C 1361.992188 1688.242188 1374.144531 1680.289062 1386.363281 1672.46875 C 1381.386719 1673.503906 1371.429688 1675.699219 1366.453125 1676.734375 C 1357.011719 1663.222656 1347.640625 1649.648438 1339.753906 1635.230469 C 1342.597656 1633.9375 1348.351562 1631.484375 1351.261719 1630.191406 C 1373.238281 1636.589844 1393.992188 1646.417969 1415.648438 1653.65625 C 1424.632812 1647.515625 1433.75 1641.566406 1442.992188 1635.75 C 1415.710938 1642.796875 1390.566406 1628.445312 1365.804688 1619.199219 C 1369.941406 1607.046875 1380.222656 1594.441406 1374.078125 1581.253906 C 1369.101562 1568.128906 1353.714844 1560.371094 1340.269531 1564.316406 C 1319.648438 1571.621094 1302.386719 1585.648438 1283.121094 1595.667969 Z M 660.382812 1612.476562 C 663.746094 1615.644531 670.46875 1621.914062 673.828125 1625.019531 C 666.523438 1649.777344 656.570312 1673.761719 650.105469 1698.84375 C 635.496094 1740.863281 702.792969 1770.472656 728.910156 1739.507812 C 745.003906 1715.394531 748.367188 1685.59375 761.230469 1659.992188 C 765.628906 1658.117188 774.355469 1654.304688 778.6875 1652.429688 C 765.046875 1648.613281 751.726562 1643.832031 738.410156 1639.175781 C 743.648438 1643.3125 748.949219 1647.515625 754.183594 1651.71875 C 745.910156 1677.898438 738.667969 1704.726562 726.644531 1729.488281 C 713.265625 1758.640625 656.632812 1744.03125 664.585938 1710.480469 C 670.339844 1684.167969 679 1658.3125 690.121094 1633.746094 C 694.644531 1632.257812 703.566406 1629.15625 708.09375 1627.605469 C 691.929688 1623.464844 676.15625 1617.90625 660.382812 1612.476562 Z M 1164.5625 1646.027344 C 1168.308594 1646.738281 1175.808594 1648.226562 1179.558594 1648.9375 C 1197.207031 1677.835938 1205.933594 1711.320312 1219.574219 1742.285156 C 1217.507812 1745.777344 1213.367188 1752.824219 1211.300781 1756.316406 C 1238.128906 1745.195312 1265.019531 1734.269531 1292.042969 1723.667969 C 1291.851562 1712.613281 1291.589844 1701.625 1291.527344 1690.632812 C 1287.710938 1700.460938 1284.15625 1710.480469 1279.050781 1719.789062 C 1266.3125 1728.96875 1251.058594 1733.300781 1236.640625 1738.925781 C 1229.59375 1722.570312 1222.808594 1706.148438 1216.148438 1689.730469 C 1233.410156 1682.8125 1254.484375 1670.269531 1268.898438 1689.019531 C 1263.210938 1676.734375 1258.363281 1664 1254.546875 1651.070312 C 1252.414062 1672.339844 1231.339844 1677.769531 1214.660156 1685.140625 C 1208.390625 1670.078125 1202.3125 1654.949219 1196.238281 1639.820312 C 1211.363281 1634.457031 1226.039062 1625.601562 1242.394531 1625.148438 C 1248.535156 1628.769531 1254.484375 1633.035156 1260.367188 1637.238281 C 1256.035156 1629.15625 1251.832031 1621.011719 1247.632812 1612.863281 C 1219.898438 1623.726562 1192.488281 1635.683594 1164.5625 1646.027344 Z M 1107.996094 1658.503906 C 1111.484375 1660.121094 1118.46875 1663.484375 1121.957031 1665.164062 C 1123.058594 1695.933594 1110.96875 1725.738281 1105.992188 1755.925781 C 1088.796875 1729.746094 1070.886719 1703.953125 1055.179688 1676.800781 C 1058.992188 1673.957031 1066.621094 1668.394531 1070.4375 1665.550781 C 1054.53125 1668.136719 1038.566406 1670.398438 1022.53125 1671.5625 C 1060.09375 1700.847656 1076.640625 1748.492188 1106.574219 1784.628906 C 1114.78125 1750.886719 1121.246094 1716.75 1128.941406 1682.875 C 1131.203125 1670.980469 1137.472656 1660.574219 1144.585938 1651.070312 C 1132.429688 1653.914062 1120.277344 1656.4375 1107.996094 1658.503906 Z M 795.945312 1657.082031 C 801.957031 1661.996094 807.777344 1667.101562 813.402344 1672.535156 C 813.402344 1705.308594 805.386719 1737.632812 801.378906 1770.148438 C 796.980469 1772.023438 788.1875 1775.773438 783.726562 1777.582031 C 796.917969 1778.296875 810.105469 1779.265625 823.292969 1780.558594 C 820.1875 1778.230469 814.046875 1773.445312 810.945312 1771.121094 C 810.558594 1742.867188 817.34375 1715.070312 821.289062 1687.207031 C 844.367188 1722.050781 864.601562 1758.707031 887.164062 1793.875 C 895.632812 1757.800781 896.472656 1720.371094 905.003906 1684.429688 C 908.691406 1681.582031 916.125 1675.894531 919.808594 1673.050781 C 906.167969 1672.273438 892.59375 1670.722656 879.082031 1669.042969 C 884.835938 1671.820312 890.589844 1674.601562 896.34375 1677.382812 C 893.949219 1705.308594 889.75 1733.042969 885.742188 1760.710938 C 865.3125 1727.871094 845.660156 1694.578125 825.621094 1661.542969 C 815.664062 1660.054688 805.773438 1658.570312 795.945312 1657.082031 Z M 944.308594 1673.050781 C 950.0625 1676.152344 955.816406 1679.257812 961.570312 1682.425781 C 962.605469 1717.269531 965.0625 1752.046875 963.898438 1786.894531 C 959.050781 1788.1875 949.222656 1790.773438 944.308594 1792.066406 C 962.089844 1792.453125 979.867188 1792.324219 997.644531 1793.550781 C 992.40625 1789.671875 987.429688 1785.535156 982.644531 1781.203125 C 978.894531 1747.71875 979.414062 1713.90625 978.894531 1680.226562 C 982.582031 1678.351562 990.015625 1674.539062 993.699219 1672.664062 C 977.214844 1672.984375 960.796875 1673.246094 944.308594 1673.050781 Z M 944.308594 1673.050781 "/>
<path style=" stroke:none;fill-rule:nonzero;fill:rgb(100%,100%,100%);fill-opacity:1;" d="M 667.234375 256.195312 C 671.824219 256.515625 681.003906 257.035156 685.59375 257.359375 C 683.980469 264.597656 682.363281 271.839844 680.8125 279.144531 C 676.351562 271.449219 671.761719 263.820312 667.234375 256.195312 Z M 667.234375 256.195312 "/>
<path style=" stroke:none;fill-rule:nonzero;fill:rgb(100%,100%,100%);fill-opacity:1;" d="M 680.164062 703.546875 C 824.003906 638.511719 967 571.539062 1111.035156 506.828125 C 1179.363281 632.757812 1211.6875 778.019531 1200.570312 921.019531 C 1194.6875 1007.644531 1172.253906 1092.65625 1137.734375 1172.234375 C 950.902344 1173.074219 764.011719 1172.167969 577.183594 1172.6875 C 560.957031 1173.398438 544.535156 1170.425781 530.832031 1161.375 C 492.625 1137.453125 458.621094 1101.574219 449.183594 1056.195312 C 490.6875 1048.5 523.71875 1081.210938 564.511719 1079.015625 C 610.800781 1080.371094 654.757812 1056.386719 683.074219 1020.636719 C 719.726562 979.78125 720.632812 921.339844 721.019531 869.558594 C 722.054688 811.699219 706.347656 754.8125 680.164062 703.546875 Z M 939.914062 717.898438 C 939.074219 740.523438 939.007812 763.214844 939.074219 785.84375 C 915.21875 785.90625 891.300781 786.101562 867.511719 784.9375 C 884.898438 773.949219 903.582031 765.285156 923.042969 758.691406 C 923.300781 746.019531 923.429688 733.414062 923.625 720.742188 C 867.445312 731.214844 818.832031 767.933594 790.386719 817.066406 C 839.972656 817.777344 889.554688 817.195312 939.136719 817.390625 C 939.136719 843.054688 939.136719 868.71875 939.074219 894.320312 C 931.316406 894.191406 923.625 894.0625 915.929688 893.867188 C 916.058594 876.089844 916.058594 858.246094 916.125 840.402344 C 870.417969 840.597656 824.777344 839.886719 779.074219 840.921875 C 776.617188 851.265625 774.226562 861.609375 771.769531 871.953125 C 809.328125 871.886719 846.886719 871.886719 884.449219 871.886719 C 884.578125 879.257812 884.707031 886.625 884.835938 893.996094 C 845.855469 894.320312 806.808594 894.0625 767.761719 894.191406 C 766.144531 942.675781 779.785156 992.257812 811.460938 1029.6875 C 839.261719 1064.726562 880.308594 1086.578125 923.300781 1097.050781 C 923.300781 1084.121094 923.300781 1071.257812 923.300781 1058.390625 C 861.691406 1042.617188 813.984375 988.898438 805.835938 925.800781 C 832.085938 925.609375 858.394531 925.609375 884.707031 925.671875 C 884.578125 930.972656 884.449219 941.511719 884.382812 946.8125 C 867.898438 946.683594 851.414062 946.683594 834.929688 946.683594 C 839.90625 957.347656 844.949219 968.015625 850.054688 978.617188 C 879.792969 979.199219 909.53125 978.941406 939.269531 979.007812 C 939.203125 983.597656 938.945312 992.710938 938.816406 997.300781 C 914.765625 997.105469 890.71875 996.914062 866.667969 997.753906 C 886.96875 1016.4375 912.179688 1028.523438 939.074219 1034.214844 C 939.007812 1055.804688 939.136719 1077.460938 939.914062 1099.054688 C 952.261719 1098.988281 964.542969 1098.925781 976.890625 1098.796875 C 977.085938 1077.140625 977.085938 1055.546875 977.28125 1033.957031 C 1003.074219 1027.683594 1027.445312 1016.046875 1047.035156 997.882812 C 1023.566406 996.976562 1000.101562 997.171875 976.699219 996.976562 C 976.890625 990.902344 977.152344 984.953125 977.410156 978.941406 C 1006.886719 977.90625 1036.820312 981.65625 1066.039062 976.9375 C 1072.117188 967.628906 1076.640625 957.414062 1081.621094 947.457031 C 1064.941406 946.875 1048.261719 946.617188 1031.582031 946.554688 C 1031.648438 941.316406 1031.710938 930.84375 1031.777344 925.609375 C 1058.023438 925.671875 1084.269531 925.609375 1110.453125 925.800781 C 1102.242188 989.089844 1054.273438 1042.617188 992.664062 1058.714844 C 992.796875 1071.386719 992.859375 1084.121094 993.054688 1096.855469 C 1040.957031 1085.996094 1085.757812 1058.972656 1113.683594 1017.921875 C 1139.605469 982.304688 1149.304688 937.695312 1148.398438 894.191406 C 1109.480469 894.125 1070.5 894.253906 1031.519531 894.0625 C 1031.582031 886.691406 1031.648438 879.257812 1031.777344 871.886719 C 1069.464844 871.953125 1107.15625 871.953125 1144.84375 871.886719 C 1141.871094 861.347656 1138.960938 850.875 1135.988281 840.402344 C 1090.863281 840.339844 1045.742188 840.46875 1000.617188 840.402344 C 1000.550781 858.503906 1000.488281 876.605469 1000.292969 894.707031 C 992.472656 894.320312 984.648438 893.996094 976.890625 893.609375 C 977.152344 868.203125 977.152344 842.730469 977.152344 817.324219 C 1026.667969 817.261719 1076.125 817.714844 1125.644531 817.132812 C 1097.652344 767.546875 1048.648438 732.1875 993.054688 720.226562 C 992.925781 732.898438 992.796875 745.632812 992.730469 758.304688 C 1011.929688 765.089844 1030.679688 773.300781 1047.550781 784.9375 C 1024.085938 786.230469 1000.617188 785.90625 977.152344 785.84375 C 977.085938 763.34375 977.152344 740.785156 976.957031 718.285156 C 964.609375 718.09375 952.261719 717.964844 939.914062 717.898438 Z M 939.914062 717.898438 "/>
<path style=" stroke:none;fill-rule:nonzero;fill:rgb(100%,100%,100%);fill-opacity:1;" d="M 1636.15625 529.519531 C 1646.304688 521.566406 1656.714844 513.808594 1667.382812 506.441406 C 1673.328125 512.644531 1679.339844 518.851562 1685.351562 525.125 C 1675.269531 525.898438 1662.921875 521.308594 1656.066406 531.265625 C 1646.175781 545.617188 1628.464844 541.15625 1613.917969 538.894531 C 1621.222656 535.660156 1628.65625 532.492188 1636.15625 529.519531 Z M 1636.15625 529.519531 "/>
<path style=" stroke:none;fill-rule:nonzero;fill:rgb(100%,100%,100%);fill-opacity:1;" d="M 267.007812 516.71875 C 270.628906 527.515625 269.53125 538.828125 267.007812 549.753906 C 253.046875 540.636719 260.09375 527.902344 267.007812 516.71875 Z M 267.007812 516.71875 "/>
<path style=" stroke:none;fill-rule:nonzero;fill:rgb(100%,100%,100%);fill-opacity:1;" d="M 915.996094 925.671875 C 944.179688 925.671875 972.367188 925.671875 1000.550781 925.671875 C 1000.550781 930.910156 1000.488281 941.445312 1000.421875 946.746094 C 972.429688 946.617188 944.375 946.617188 916.320312 946.8125 C 916.253906 941.511719 916.058594 930.972656 915.996094 925.671875 Z M 915.996094 925.671875 "/>
<path style=" stroke:none;fill-rule:nonzero;fill:rgb(100%,100%,100%);fill-opacity:1;" d="M 1419.65625 1007.320312 C 1438.921875 997.367188 1459.800781 991.09375 1479.648438 982.625 C 1471.503906 1047.015625 1451.71875 1114.050781 1406.078125 1162.019531 C 1372.207031 1182.773438 1329.085938 1168.355469 1291.527344 1172.558594 C 1308.074219 1125.171875 1325.207031 1077.980469 1341.304688 1030.527344 C 1360.117188 1024.96875 1378.863281 1019.539062 1397.609375 1013.980469 C 1389.855469 1036.929688 1380.285156 1059.363281 1374.402344 1082.957031 C 1377.3125 1083.796875 1383.128906 1085.347656 1386.039062 1086.191406 C 1403.300781 1062.917969 1403.6875 1031.109375 1419.65625 1007.320312 Z M 1419.65625 1007.320312 "/>
<path style=" stroke:none;fill-rule:nonzero;fill:rgb(100%,100%,100%);fill-opacity:1;" d="M 1270.582031 1044.945312 C 1288.359375 1041.582031 1306.136719 1038.09375 1323.914062 1034.539062 C 1307.753906 1080.566406 1291.527344 1126.527344 1275.300781 1172.558594 C 1260.367188 1172.558594 1245.433594 1172.558594 1230.5 1172.558594 C 1227.785156 1161.246094 1225.003906 1150.0625 1222.03125 1138.875 C 1218.089844 1150.0625 1214.273438 1161.308594 1210.394531 1172.492188 C 1193.328125 1172.558594 1176.195312 1172.558594 1159.066406 1172.558594 C 1175.9375 1134.027344 1189.96875 1094.207031 1200.957031 1053.542969 C 1216.277344 1051.863281 1231.597656 1050.117188 1246.984375 1048.308594 C 1249.699219 1061.558594 1252.351562 1074.8125 1254.9375 1088.128906 C 1260.238281 1073.777344 1265.472656 1059.363281 1270.582031 1044.945312 Z M 1270.582031 1044.945312 "/>
<path style=" stroke:none;fill-rule:nonzero;fill:rgb(100%,100%,100%);fill-opacity:1;" d="M 743.648438 1291.25 C 747.527344 1272.695312 763.171875 1260.992188 779.527344 1253.753906 C 787.347656 1258.988281 785.734375 1268.492188 786.183594 1276.507812 C 786.183594 1307.667969 785.796875 1338.828125 786.054688 1369.988281 C 782.695312 1370.3125 775.972656 1370.957031 772.609375 1371.28125 C 772.027344 1338.441406 772.15625 1305.601562 772.351562 1272.757812 C 762.976562 1279.160156 753.472656 1285.496094 743.648438 1291.25 Z M 743.648438 1291.25 "/>
<path style=" stroke:none;fill-rule:nonzero;fill:rgb(100%,100%,100%);fill-opacity:1;" d="M 868.542969 1333.074219 C 834.21875 1325.125 833.894531 1265.003906 868.867188 1257.503906 C 887.421875 1252.265625 912.117188 1256.46875 920.390625 1276.121094 C 929.636719 1301.65625 930.21875 1332.75 915.542969 1356.414062 C 895.824219 1381.6875 849.472656 1374.0625 840.683594 1341.929688 C 859.753906 1340.054688 868.480469 1364.492188 887.617188 1360.097656 C 906.363281 1358.609375 908.753906 1336.757812 915.347656 1323.25 C 900.609375 1329.453125 884.964844 1337.730469 868.542969 1333.074219 Z M 871.324219 1268.429688 C 849.085938 1279.160156 853.933594 1323.441406 881.214844 1323.570312 C 909.144531 1327.449219 917.804688 1286.789062 899.898438 1271.207031 C 891.6875 1265.324219 880.503906 1265.195312 871.324219 1268.429688 Z M 871.324219 1268.429688 "/>
<path style=" stroke:none;fill-rule:nonzero;fill:rgb(100%,100%,100%);fill-opacity:1;" d="M 973.59375 1259.894531 C 993.246094 1251.167969 1021.367188 1255.371094 1031.261719 1276.507812 C 1040.957031 1299.136719 1040.632812 1326.222656 1031.582031 1349.042969 C 1017.296875 1382.269531 959.242188 1377.035156 952.972656 1340.507812 C 947.089844 1313.550781 945.992188 1275.410156 973.59375 1259.894531 Z M 979.867188 1271.015625 C 961.246094 1288.921875 964.15625 1319.886719 970.621094 1342.773438 C 975.597656 1363.136719 1007.40625 1364.878906 1015.746094 1346.199219 C 1024.730469 1326.867188 1023.953125 1303.402344 1017.425781 1283.363281 C 1012.898438 1267.585938 992.925781 1263.96875 979.867188 1271.015625 Z M 979.867188 1271.015625 "/>
<path style=" stroke:none;fill-rule:nonzero;fill:rgb(100%,100%,100%);fill-opacity:1;" d="M 1068.300781 1277.285156 C 1082.976562 1244.507812 1142 1249.226562 1145.488281 1287.886719 C 1129.265625 1281.808594 1116.464844 1261.835938 1097.328125 1267.394531 C 1081.75 1270.820312 1080.132812 1289.761719 1073.601562 1301.527344 C 1091.769531 1295.773438 1113.039062 1286.464844 1130.6875 1298.875 C 1152.472656 1316.203125 1150.078125 1361.003906 1120.535156 1368.953125 C 1101.273438 1375.09375 1075.21875 1370.441406 1067.007812 1349.816406 C 1058.929688 1326.804688 1058.539062 1299.910156 1068.300781 1277.285156 Z M 1091.1875 1306.3125 C 1077.289062 1314.519531 1077.09375 1334.433594 1082.136719 1347.945312 C 1092.738281 1370.050781 1133.144531 1361.648438 1130.234375 1335.207031 C 1135.082031 1312.96875 1110.96875 1294.738281 1091.1875 1306.3125 Z M 1091.1875 1306.3125 "/>
<path style=" stroke:none;fill-rule:nonzero;fill:rgb(100%,100%,100%);fill-opacity:1;" d="M 386.023438 1498.3125 C 402.3125 1491.007812 418.734375 1484.023438 435.21875 1477.105469 C 429.011719 1493.65625 422.679688 1510.207031 416.277344 1526.691406 C 406.191406 1517.253906 396.109375 1507.75 386.023438 1498.3125 Z M 386.023438 1498.3125 "/>
<path style=" stroke:none;fill-rule:nonzero;fill:rgb(100%,100%,100%);fill-opacity:1;" d="M 1308.398438 1587.070312 C 1322.492188 1579.054688 1342.921875 1567.933594 1354.621094 1585.90625 C 1369.039062 1603.363281 1351.195312 1622.042969 1338.589844 1633.617188 C 1327.988281 1618.425781 1317.96875 1602.84375 1308.398438 1587.070312 Z M 1308.398438 1587.070312 "/>
</g>
</svg>
